<?xml version="1.0" standalone="no"?>
<!DOCTYPE svg PUBLIC "-//W3C//DTD SVG 20010904//EN"
 "http://www.w3.org/TR/2001/REC-SVG-20010904/DTD/svg10.dtd">
<svg version="1.0" xmlns="http://www.w3.org/2000/svg"
 width="700.000000pt" height="700.000000pt" viewBox="0 0 700.000000 700.000000"
 preserveAspectRatio="xMidYMid meet">
<metadata>
Created by potrace 1.11, written by Peter Selinger 2001-2013
</metadata>
<g transform="translate(0.000000,700.000000) scale(0.100000,-0.100000)"
fill="#000000" stroke="none">
<path d="M3395 6993 c-16 -2 -52 -8 -80 -14 -27 -6 -61 -13 -75 -15 -44 -9
-203 -65 -255 -91 -92 -46 -183 -106 -196 -130 -23 -42 -13 -85 26 -122 46
-42 75 -39 166 16 125 76 285 132 426 149 84 10 257 7 322 -7 31 -6 61 -12 66
-13 49 -10 145 -44 214 -77 315 -150 536 -430 607 -769 35 -171 21 -396 -38
-578 -28 -87 -21 -111 54 -185 96 -94 179 -199 246 -309 l23 -37 -61 -62
c-246 -250 -350 -620 -266 -949 14 -54 14 -66 3 -75 -7 -5 -43 -48 -81 -94
-123 -154 -218 -340 -258 -509 -12 -48 -24 -90 -28 -95 -3 -4 -35 6 -71 21
-134 60 -308 111 -436 127 -62 8 -55 -22 -54 243 l0 163 341 342 c188 188 348
354 356 368 41 80 -58 170 -139 128 -12 -7 -141 -131 -286 -276 -145 -145
-266 -261 -269 -259 -3 4 -6 1258 -3 1298 1 4 105 111 231 238 127 127 231
238 231 248 4 42 -2 68 -19 92 -22 29 -70 45 -105 36 -14 -3 -95 -76 -181
-162 -86 -85 -156 -149 -156 -142 -1 7 -2 118 -3 245 l-2 233 -26 26 c-16 15
-41 28 -66 31 -35 5 -45 1 -74 -25 l-34 -30 -2 -239 c-1 -131 -2 -242 -3 -246
0 -4 -70 62 -156 147 -127 127 -162 157 -192 162 -46 9 -82 -10 -104 -56 -31
-64 -22 -76 224 -323 125 -127 228 -237 229 -246 3 -77 0 -1283 -3 -1287 -3
-2 -124 114 -269 259 -145 145 -274 269 -286 276 -41 21 -83 13 -118 -22 -24
-24 -32 -40 -30 -62 2 -17 3 -35 4 -41 1 -7 159 -170 352 -363 l351 -352 2
-194 1 -195 -47 -1 c-27 -1 -51 -2 -55 -3 -5 -1 -39 -6 -77 -10 -92 -11 -290
-65 -396 -109 l-85 -36 -8 37 c-30 130 -94 289 -163 405 -32 53 -116 170 -134
187 -3 3 -19 21 -37 40 l-32 35 15 65 c59 255 21 524 -107 742 -35 60 -102
152 -136 186 -28 28 -28 23 -2 69 68 122 163 246 273 356 72 72 85 102 67 161
-6 23 -19 64 -27 91 -83 280 -35 627 122 873 58 90 41 166 -40 186 -56 14 -94
-11 -142 -92 -89 -150 -147 -309 -168 -457 -4 -23 -9 -52 -11 -65 -6 -30 -7
-257 -2 -285 3 -11 8 -42 11 -70 7 -48 31 -149 42 -178 3 -8 -16 -37 -46 -68
-63 -66 -173 -212 -225 -297 -21 -34 -41 -61 -44 -60 -3 2 -42 22 -86 44 -82
43 -207 86 -286 100 -54 10 -298 11 -355 1 -139 -23 -355 -118 -372 -165 -20
-52 -20 -59 -6 -88 32 -65 85 -75 172 -33 218 105 433 123 640 53 278 -94 489
-340 540 -629 16 -90 8 -257 -17 -345 -43 -153 -44 -144 48 -244 166 -179 258
-346 306 -554 22 -93 20 -115 -12 -134 -40 -23 -179 -134 -237 -187 -57 -53
-47 -45 -156 -141 -47 -41 -87 -77 -90 -80 -3 -3 -61 -55 -130 -115 -69 -61
-130 -114 -136 -120 -6 -5 -41 -37 -79 -70 -38 -33 -92 -82 -121 -108 -29 -27
-56 -48 -61 -48 -4 1 -9 58 -10 128 l-1 128 254 255 c140 141 254 262 255 270
0 8 2 22 4 31 9 47 -62 113 -110 104 -11 -2 -24 -4 -29 -4 -6 -1 -91 -82 -191
-182 l-182 -180 0 393 0 393 179 180 c182 182 210 216 203 251 -2 10 -4 24 -4
30 -1 6 -13 23 -27 38 -21 20 -37 26 -71 26 -42 0 -48 -4 -141 -96 -53 -52
-106 -104 -118 -115 l-21 -19 0 229 c0 252 -3 266 -61 294 -34 17 -64 15 -96
-7 -46 -30 -49 -46 -49 -288 0 -228 0 -228 -20 -211 -11 10 -59 57 -107 105
-48 48 -99 94 -113 101 -79 41 -174 -52 -133 -131 8 -16 96 -110 194 -208
l179 -179 0 -393 0 -393 -181 179 c-114 113 -191 182 -208 186 -60 14 -133
-48 -123 -103 2 -9 4 -23 4 -31 1 -8 115 -129 255 -270 l254 -255 -1 -225 c0
-152 -3 -228 -11 -235 -6 -5 -49 -44 -96 -85 -47 -41 -88 -79 -91 -84 -25 -34
-301 98 -434 207 -217 179 -362 427 -412 702 -19 105 -21 303 -4 390 7 33 15
74 18 90 8 46 71 209 105 273 49 91 116 181 195 263 45 46 75 86 79 105 3 18
-5 63 -21 119 -54 185 -42 380 36 557 56 127 59 139 44 176 -14 32 -59 62 -95
62 -56 0 -113 -75 -166 -220 -68 -187 -77 -414 -24 -610 9 -31 7 -38 -19 -65
-58 -63 -74 -82 -116 -141 -127 -182 -213 -393 -243 -599 -9 -66 -9 -337 1
-399 56 -349 230 -649 507 -871 98 -80 299 -195 338 -195 29 0 16 -15 -138
-150 -9 -8 -48 -42 -86 -76 -38 -33 -109 -96 -159 -140 -49 -43 -95 -84 -101
-89 -6 -6 -39 -35 -74 -65 -34 -30 -69 -61 -76 -68 -8 -7 -15 -12 -15 -10 -1
2 -3 95 -4 208 -2 113 -3 215 -4 228 -1 13 -14 37 -30 53 -39 38 -97 40 -138
5 l-28 -24 -3 -644 c-2 -437 1 -651 8 -668 6 -15 24 -34 39 -43 27 -16 251
-17 3380 -17 2387 0 3357 3 3374 11 13 6 31 23 40 39 15 25 17 89 17 668 l0
640 -29 31 c-54 58 -149 33 -169 -44 -4 -16 -7 -123 -7 -237 1 -115 -1 -208
-3 -208 -4 0 -169 141 -317 271 -16 14 -103 90 -193 168 -145 127 -175 161
-141 161 21 0 177 80 244 126 279 188 469 447 560 760 43 149 53 223 53 387
-1 334 -127 665 -342 903 l-54 60 19 84 c19 82 28 275 16 345 -13 85 -20 115
-39 175 -105 334 -377 592 -718 680 -80 21 -113 24 -250 24 -190 0 -259 -14
-423 -87 -37 -16 -69 -28 -70 -26 -2 2 -18 29 -37 59 -45 73 -129 181 -196
253 l-54 57 19 73 c18 66 23 91 36 189 7 49 7 227 0 273 -21 144 -31 190 -57
270 -99 301 -301 552 -583 721 -103 62 -279 127 -420 154 -58 12 -318 20 -380
13z m2360 -2172 c152 -40 276 -111 382 -218 107 -109 185 -256 218 -412 17
-82 13 -276 -8 -346 -42 -146 -42 -143 -26 -174 7 -17 44 -61 80 -98 409 -424
433 -1096 55 -1548 -57 -68 -115 -125 -166 -164 -19 -14 -37 -29 -40 -32 -32
-40 -293 -167 -372 -181 -11 -2 -58 31 -116 82 l-98 85 -1 236 -1 236 249 249
c160 160 253 260 259 280 24 70 -45 145 -118 128 -17 -4 -97 -76 -208 -186
l-181 -180 0 394 0 393 188 188 c201 202 213 220 184 282 -21 43 -61 62 -123
56 -6 -1 -64 -52 -127 -115 -64 -62 -117 -111 -119 -107 -2 3 -3 104 -3 223 0
146 -4 226 -12 246 -14 34 -64 60 -106 55 -41 -5 -85 -54 -86 -96 0 -17 -1
-124 -1 -236 l0 -204 -48 48 c-155 153 -190 183 -220 187 -81 12 -142 -77
-102 -148 5 -9 91 -98 190 -198 l180 -181 0 -394 0 -393 -182 180 c-116 115
-191 182 -209 186 -70 17 -141 -64 -116 -132 5 -15 122 -139 259 -277 l248
-250 0 -142 c0 -79 -1 -143 -2 -143 -3 0 -32 24 -101 84 -104 91 -402 351
-460 400 -88 76 -223 197 -280 250 -27 26 -87 75 -133 109 -72 54 -82 65 -77
87 2 14 6 36 9 50 35 211 150 432 313 601 86 89 94 111 65 201 -41 125 -52
292 -27 409 40 199 170 399 327 507 85 58 222 118 295 129 18 2 45 8 60 12 52
14 225 3 308 -18z m-2100 -1846 c284 -35 605 -193 850 -418 44 -40 105 -95
135 -122 30 -26 69 -59 85 -74 17 -14 82 -71 145 -126 63 -55 117 -102 120
-105 5 -5 137 -120 180 -156 14 -12 68 -59 120 -105 53 -46 123 -107 155 -135
93 -80 147 -127 180 -155 58 -51 211 -185 274 -239 35 -30 74 -64 86 -75 13
-11 49 -42 81 -70 32 -27 79 -68 104 -91 25 -22 128 -112 230 -199 217 -187
254 -220 295 -260 l31 -30 -1 -200 c-1 -110 -3 -202 -4 -205 0 -3 -300 -5
-666 -5 l-664 0 -59 90 c-139 211 -256 540 -297 832 -3 21 -8 47 -10 58 -2 11
-7 47 -10 80 -4 33 -8 74 -10 90 -3 17 -7 100 -10 185 -8 193 -19 232 -76 254
-22 9 -44 14 -49 11 -10 -6 -234 -7 -265 -1 -11 2 -42 7 -70 10 -91 13 -109
17 -190 38 -243 65 -455 187 -630 363 -55 55 -111 117 -125 138 -42 62 -102
78 -165 44 -13 -7 -42 -36 -65 -66 -120 -152 -310 -304 -480 -383 -154 -72
-299 -116 -430 -133 -25 -3 -63 -7 -85 -10 -22 -3 -89 -4 -150 -4 -159 0 -164
0 -190 -17 -34 -22 -43 -60 -49 -224 -4 -80 -8 -162 -10 -182 -13 -127 -20
-177 -42 -298 -34 -195 -90 -386 -156 -540 -54 -124 -161 -309 -190 -327 -7
-4 -304 -8 -659 -8 l-646 0 1 208 1 208 46 42 c26 23 60 53 75 67 96 83 280
245 284 250 3 3 61 55 130 115 69 61 127 112 130 115 3 3 59 52 125 110 66 57
129 114 140 125 11 11 70 63 130 115 61 52 115 99 121 105 6 5 41 37 79 70 37
33 73 65 79 70 6 6 54 48 106 94 52 46 127 112 165 146 39 34 153 135 255 225
102 90 222 196 267 237 231 209 365 299 558 376 227 90 458 121 690 92z m-319
-1026 c-50 -218 -202 -522 -350 -704 -58 -71 -68 -107 -45 -158 19 -42 78 -63
127 -46 25 9 101 100 178 214 76 112 172 296 216 413 11 29 21 52 23 50 1 -2
15 -34 30 -73 119 -302 374 -650 675 -921 161 -144 416 -332 611 -450 60 -36
109 -66 109 -67 0 -2 -2803 0 -2835 2 -14 1 -5 10 30 29 173 96 479 312 597
421 21 18 47 40 58 48 24 17 50 64 50 92 0 55 -49 101 -106 101 -28 0 -55 -18
-164 -108 -96 -80 -98 -82 -195 -153 -105 -78 -265 -182 -350 -228 -33 -18
-65 -37 -72 -43 -8 -7 -10 -3 -6 14 3 13 10 28 14 34 28 36 144 379 162 479 3
17 15 75 26 130 24 125 30 163 37 245 3 36 7 67 9 70 2 3 7 59 10 125 4 66 9
121 10 123 1 1 44 5 96 7 271 13 499 72 724 187 121 61 321 200 334 230 1 5 5
7 8 5 2 -3 -3 -33 -11 -68z m442 -56 c242 -173 581 -285 902 -299 36 -1 74 -3
86 -3 18 -1 21 -8 23 -58 1 -32 4 -76 6 -98 13 -160 17 -196 25 -245 56 -332
99 -492 195 -727 l42 -102 -46 26 c-209 119 -415 262 -622 433 -80 66 -295
284 -366 371 -189 232 -363 577 -398 788 l-7 43 37 -33 c20 -19 76 -62 123
-96z"/>
</g>
</svg>
